# xmcd CD database file
#
# Track frame offsets:
#	150
#	12243
#	29469
#	42294
#	62064
#	78484
#	92870
#	107796
#	126112
#	151140
#	170524
#	188386
#
# Disc length: 2990 seconds
#
# Revision: 0
# Processed by: cddbd v1.5.1PL2 Copyright (c) Steve Scherf et al.
# Submitted via: CDex 1.51
#
DISCID=900bac0c
DTITLE=Tami Tappan Damiano - Hot notes
DYEAR=2004
DGENRE=Jazz
TTITLE0=1. Hit Me With A Hot Note 
TTITLE1=2. Skylark 
TTITLE2=3. Until Now 
TTITLE3=4. What More Can I Say 
TTITLE4=5. Alfie 
TTITLE5=6. What You Don't Know About Women 
TTITLE6=7. A Lot Of Livin' To Do 
TTITLE7=8. In Whatever Time We Have (w/ David Burnham) 
TTITLE8=9. Harm's Way 
TTITLE9=10. When He Loved Me 
TTITLE10=11. But The World Goes 'Round 
TTITLE11=12. God Only Knows 
EXTD=YEAR: 2004
EXTT0=
EXTT1=
EXTT2=
EXTT3=
EXTT4=
EXTT5=
EXTT6=
EXTT7=
EXTT8=
EXTT9=
EXTT10=
EXTT11=
PLAYORDER=
